<svg width="138" height="129" viewBox="0 0 138 129" fill="none" xmlns="http://www.w3.org/2000/svg">
<path d="M111.676 19.2864C111.676 19.2864 106.206 32.3288 80.8879 39.2584L70.4033 35.0422C70.4033 35.0422 107.916 20.3643 107.885 7.76953L111.676 19.2864Z" fill="#E0E0E0"/>
<path d="M65.7957 33.1905L76.9601 37.6803C76.9601 37.6803 90.4441 5.57582 111.674 19.2878C111.674 19.2878 109.025 4.41916 102.23 1.47155C102.23 1.47155 87.2394 -10.3811 65.7957 33.1905Z" fill="#EEEEEE"/>
<path d="M26.3242 19.2864C26.3242 19.2864 31.7945 32.3288 57.1125 39.2584L67.597 35.0422C67.597 35.0422 30.0844 20.3643 30.1155 7.76953L26.3242 19.2864Z" fill="#EEEEEE"/>
<path d="M72.2029 33.1905L61.0385 37.6803C61.0385 37.6803 47.5545 5.57582 26.3242 19.2878C26.3242 19.2878 28.9733 4.41916 35.7682 1.47155C35.7682 1.47155 50.7612 -10.3811 72.2029 33.1905Z" fill="#EEEEEE"/>
<path d="M68.9988 53.543H9.84961V128.999H68.9988V53.543Z" fill="#F6574C"/>
<path d="M128.149 53.543H69.0002V128.999H128.149V53.543Z" fill="#BF2425"/>
<path d="M137.116 30.0078H69V53.541H137.116V30.0078Z" fill="#BF2425"/>
<path d="M48.3196 53.543H30.5303V128.999H48.3196V53.543Z" fill="#F5F5F5"/>
<path d="M107.468 53.543H89.6787V128.999H107.468V53.543Z" fill="#E0E0E0"/>
<path d="M114.05 30.0078H92.0654V53.541H114.05V30.0078Z" fill="#F5F5F5"/>
<path d="M76.9869 30.0078H0.883789V53.541H76.9869V30.0078Z" fill="#F6574C"/>
<path d="M45.933 30.0078H23.9482V53.541H45.933V30.0078Z" fill="white"/>
</svg>
