<svg width="390" height="267" viewBox="0 0 390 120" fill="none" xmlns="http://www.w3.org/2000/svg">
<path d="M348.614 71.668L356.618 81.1713L227.53 159.653L348.614 71.668Z" fill="#EB5757"/>
<path d="M69.894 26.2957L79.3973 18.2949L165.012 151.151L69.894 26.2957Z" fill="#EB5757"/>
<path d="M72.0372 281.598L64.9731 271.764L156.51 213.666L72.0372 281.598Z" fill="#EB5757"/>
<path d="M300.249 332.737L290.745 340.738L219.027 222.17L300.249 332.737Z" fill="#EB5757"/>
<path d="M213.548 14.7338L201.293 12.6816L197.197 142.349L213.548 14.7338Z" fill="#EB5757"/>
<path d="M170.495 358.588L182.747 360.64L186.846 230.973L170.495 358.588Z" fill="#EB5757"/>
<path d="M361.48 92.836L363.951 88.4673L361.755 83.9545L366.676 84.9553L370.289 81.4727L370.858 86.4604L375.288 88.8223L370.719 90.9012L369.841 95.8463L366.451 92.1421L361.48 92.836Z" fill="#FFB657"/>
<path d="M135.369 52.1047L131.001 49.6308L126.485 51.8272L127.489 46.9088L124.003 43.2926L128.991 42.7269L131.353 38.2969L133.434 42.8657L138.377 43.741L134.675 47.133L135.369 52.1047Z" fill="#FFB657"/>
<path d="M300.077 61.87L304.485 54.0854L300.57 46.0393L309.337 47.8273L315.777 41.6172L316.788 50.5066L324.682 54.7152L316.54 58.422L314.979 67.2314L308.937 60.6344L300.077 61.87Z" fill="#FFB657"/>
<path d="M56.0279 33.2617L48.2433 28.8557L40.1972 32.7706L41.9852 24.0039L35.7751 17.5617L44.6646 16.5529L48.8705 8.65625L52.58 16.7985L61.3894 18.3596L54.7897 24.4016L56.0279 33.2617Z" fill="#FFB657"/>
<path d="M365.998 227.556L373.755 232.016L374.481 240.932L381.118 234.932L389.821 237.001L386.168 228.834L390.822 221.194L381.927 222.147L376.099 215.357L374.255 224.113L365.998 227.556Z" fill="#FFB657"/>
<path d="M239.557 24.8216L244.017 17.0664L252.933 16.3405L246.936 9.70347L249.002 1.00077L240.836 4.65428L233.195 0L234.148 8.89482L227.359 14.7233L236.115 16.5647L239.557 24.8216Z" fill="#FFB657"/>
<path d="M46.6874 125.993L38.9321 121.536L38.2062 112.617L31.5691 118.616L22.8665 116.551L26.52 124.717L21.8657 132.358L30.7605 131.405L36.589 138.191L38.4304 129.438L46.6874 125.993Z" fill="#FFB657"/>
<path d="M47.3495 218.137L44.5447 223.015L38.9324 223.471L42.7086 227.648L41.4089 233.124L46.5462 230.824L51.3525 233.754L50.7521 228.158L55.0247 224.491L49.5165 223.33L47.3495 218.137Z" fill="#FFB657"/>
<path d="M375.288 55.0463L377.175 51.7132L375.499 48.2678L379.254 49.0338L382.01 46.373L382.443 50.1813L385.824 51.9826L382.339 53.5705L381.669 57.3441L379.083 54.5179L375.288 55.0463Z" fill="#FFB657"/>
<path d="M113.525 20.9599L110.192 19.0731L106.746 20.749L107.512 16.9942L104.852 14.2374L108.66 13.8051L110.461 10.4238L112.049 13.9092L115.82 14.579L112.996 17.165L113.525 20.9599Z" fill="#FFB657"/>
<path d="M230.254 61.9036L232.163 58.581L235.981 58.2715L233.414 55.4293L234.297 51.7011L230.801 53.265L227.53 51.2715L227.938 55.0823L225.029 57.5776L228.779 58.3676L230.254 61.9036Z" fill="#FFB657"/>
<path d="M10.6294 151.401L7.3069 149.493L6.99734 145.674L4.15516 148.244L0.426962 147.358L1.99351 150.857L0 154.128L3.80821 153.72L6.30349 156.626L7.0934 152.877L10.6294 151.401Z" fill="#FFB657"/>
<path d="M159.483 84.5598L161.101 76.7031L167.167 82.0486L175.456 125.407L159.483 84.5598Z" fill="#EB5757"/>
<path d="M71.2561 223.736L63.3994 222.118L68.7448 216.052L130.766 203.227L71.2561 223.736Z" fill="#EB5757"/>
<path d="M229.093 307.425L227.476 315.282L221.407 309.939L208.584 247.918L229.093 307.425Z" fill="#EB5757"/>
<path d="M302.699 247.558L310.721 247.577L306.726 240.547L248.618 215.357L302.699 247.558Z" fill="#EB5757"/>
<path d="M262.66 57.0104L262.676 48.9883L255.647 52.9833L220.716 130.066L262.66 57.0104Z" fill="#EB5757"/>
<path d="M62.3441 116.334L54.322 116.318L58.3171 123.345L135.424 157.964L62.3441 116.334Z" fill="#EB5757"/>
<path d="M109.29 327.01L109.274 335.032L116.301 331.034L163.324 243.258L109.29 327.01Z" fill="#EB5757"/>
<path d="M350.649 138.237L354.388 132.787L352.018 126.617L358.359 128.491L363.494 124.33L363.673 130.935L369.216 134.535L362.987 136.745L361.279 143.128L357.249 137.89L350.649 138.237Z" fill="#FFB657"/>
<path d="M174.014 23.919L168.565 20.1801L162.395 22.5499L164.268 16.2118L160.108 11.0771L166.713 10.8984L170.313 5.35547L172.522 11.5842L178.906 13.2922L173.667 17.3193L174.014 23.919Z" fill="#FFB657"/>
<path d="M19.9124 209.159L16.1736 214.612L18.5434 220.779L12.2052 218.908L7.07058 223.069L6.89181 216.461L1.34888 212.864L7.57764 210.651L9.28561 204.268L13.3127 209.509L19.9124 209.159Z" fill="#FFB657"/>
<path d="M333.728 224.166L336.276 230.264L332.7 235.821L339.287 235.282L343.466 240.4L344.987 233.968L351.146 231.575L345.499 228.14L345.128 221.543L340.117 225.853L333.728 224.166Z" fill="#FFB657"/>
<path d="M278.464 33.2261L284.562 30.6774L290.118 34.2535L289.579 27.6671L295.207 22.8608L288.266 21.9667L285.872 15.8047L282.437 21.4517L275.84 21.8253L280.15 26.8371L278.464 33.2261Z" fill="#FFB657"/>
<path d="M109.941 111.609L107.392 105.511L110.968 99.9545L104.382 100.496L100.2 95.375L98.6814 101.807L92.5193 104.2L98.1663 107.635L98.5399 114.232L103.552 109.925L109.941 111.609Z" fill="#FFB657"/>
<path d="M313.233 143.118L314.311 138.018L310.722 134.239L315.904 133.69L318.389 129.107L320.513 133.866L325.64 134.813L321.77 138.304L322.453 143.47L317.935 140.871L313.233 143.118Z" fill="#FFB657"/>
<path d="M182.282 68.5956L177.185 67.5175L173.406 71.1068L172.856 65.9242L168.274 63.4396L173.032 61.3154L173.98 56.1914L177.47 60.0584L182.637 59.3752L180.038 63.8933L182.282 68.5956Z" fill="#FFB657"/>
<path d="M32.6318 249.296L32.0393 252.098L34.0142 254.177L31.164 254.479L29.7976 257.001L28.6287 254.383L25.8105 253.863L27.9375 251.941L27.5612 249.102L30.0458 250.529L32.6318 249.296Z" fill="#FFB657"/>
<path d="M277.996 257.002L278.012 262.211L273.729 265.179L278.69 266.775L280.187 271.765L283.238 267.541L288.447 267.658L285.373 263.452L287.094 258.531L282.141 260.159L277.996 257.002Z" fill="#FFB657"/>
<path d="M266.322 97.8439L271.531 97.8279L274.499 102.111L276.095 97.15L281.085 95.6503L276.861 92.5999L276.978 87.3906L272.772 90.4676L267.851 88.7463L269.479 93.6968L266.322 97.8439Z" fill="#FFB657"/>
<path d="M75.1306 88.016L75.1146 82.804L79.3978 79.8364L74.4367 78.2406L72.9369 73.25L69.8866 77.4746L64.6772 77.3571L67.7543 81.5658L66.0329 86.4842L70.9834 84.8589L75.1306 88.016Z" fill="#FFB657"/>
<path d="M35.4533 81.766L35.4373 76.554L39.7206 73.5864L34.7595 71.9906L33.2596 67L30.2093 71.2246L25 71.1071L28.077 75.3158L26.3557 80.2342L31.3061 78.6089L35.4533 81.766Z" fill="#FFB657"/>
</svg>
